<svg xmlns="http://www.w3.org/2000/svg" xmlns:xlink="http://www.w3.org/1999/xlink" viewBox="0 0 550 225">
  <defs>
    <style>
      .a {
        fill: #000083;
      }

      .b {
        fill: url(#a);
      }

      .c {
        fill: url(#b);
      }

      .d {
        fill: #22b5f0;
      }

      .e {
        fill: url(#c);
      }

      .f {
        fill: url(#d);
      }

      .g {
        fill: url(#e);
      }
    </style>
    <linearGradient id="a" x1="79.58112" y1="193.98644" x2="23.40924" y2="64.42107" gradientUnits="userSpaceOnUse">
      <stop offset="0" stop-color="#000083"/>
      <stop offset="1" stop-color="#22b5f0"/>
    </linearGradient>
    <linearGradient id="b" x1="112.05266" y1="205.19169" x2="51.6523" y2="61.90146" gradientUnits="userSpaceOnUse">
      <stop offset="0" stop-color="#000083"/>
      <stop offset="0.08408" stop-color="#091c95"/>
      <stop offset="0.25492" stop-color="#1850b5"/>
      <stop offset="0.42293" stop-color="#267bcf"/>
      <stop offset="0.58458" stop-color="#309de4"/>
      <stop offset="0.73819" stop-color="#37b5f3"/>
      <stop offset="0.88033" stop-color="#3bc3fc"/>
      <stop offset="1" stop-color="#3dc8ff"/>
    </linearGradient>
    <linearGradient id="c" x1="168.42209" y1="176.4804" x2="72.778" y2="71.8892" gradientUnits="userSpaceOnUse">
      <stop offset="0" stop-color="#2083e6"/>
      <stop offset="0.03759" stop-color="#2488e8"/>
      <stop offset="0.3881" stop-color="#44b0f4"/>
      <stop offset="0.66581" stop-color="#58c9fc"/>
      <stop offset="0.83453" stop-color="#5fd2ff"/>
    </linearGradient>
    <linearGradient id="d" x1="146.24446" y1="58.7475" x2="91.98946" y2="58.7475" gradientUnits="userSpaceOnUse">
      <stop offset="0" stop-color="#099cd6"/>
      <stop offset="0.04624" stop-color="#0ea1db"/>
      <stop offset="0.20514" stop-color="#19ace7"/>
      <stop offset="0.42511" stop-color="#20b3ee"/>
      <stop offset="1" stop-color="#22b5f0"/>
    </linearGradient>
    <linearGradient id="e" x1="88.86874" y1="70.78182" x2="145.78321" y2="70.78182" gradientUnits="userSpaceOnUse">
      <stop offset="0" stop-color="#3dc8ff"/>
      <stop offset="0.3969" stop-color="#36c3fb"/>
      <stop offset="0.96322" stop-color="#23b6f1"/>
      <stop offset="1" stop-color="#22b5f0"/>
    </linearGradient>
  </defs>
  <title>Artboard 1</title>
  <g>
    <path class="a" d="M163.46177,172.21153,178.54606,71.93566a4.23287,4.23287,0,0,1,3.00712-3.43581l30.14658-8.74014a2.82193,2.82193,0,0,1,3.57648,3.12894L200.1888,163.4669c-.58283,4.8587,1.36065,6.80115,6.02438,6.80115a27.53113,27.53113,0,0,0,4.56588-.41611,3.03109,3.03109,0,0,1,3.52042,3.42452l-3.11263,20.65235a5.01284,5.01284,0,0,1-3.8406,4.13787A65.03661,65.03661,0,0,1,191.63914,200C170.65182,200,160.74152,190.28363,163.46177,172.21153Zm184.49913,0L363.04519,71.93566a4.23286,4.23286,0,0,1,3.00712-3.43581l30.14658-8.74014a2.82193,2.82193,0,0,1,3.57648,3.12894L384.68793,163.4669c-.58283,4.8587,1.36065,6.80115,6.02438,6.80115a27.53093,27.53093,0,0,0,4.56587-.41611,3.03108,3.03108,0,0,1,3.52042,3.42452L395.686,193.92881a5.01284,5.01284,0,0,1-3.8406,4.13787A65.03661,65.03661,0,0,1,376.13827,200C355.151,200,345.24065,190.28363,347.9609,172.21153Zm-7.68624,1.01356-3.01393,20.9534a4.602,4.602,0,0,1-3.54175,3.82731A69.08719,69.08719,0,0,1,317.77083,200c-13.60229,0-22.153-4.4698-25.65-12.04772C283.959,195.1413,271.71633,200,258.308,200c-25.26112,0-39.25232-16.90642-35.56032-41.77967l8.16794-55.32288a3.02762,3.02762,0,0,1,2.99515-2.58541H263.156a3.02762,3.02762,0,0,1,2.99512,3.47005l-7.06534,47.831c-1.74955,11.27095,3.10915,18.26707,13.60229,18.26707,10.68812,0,18.266-6.60721,19.82061-17.68423l7.38652-49.30486a3.02761,3.02761,0,0,1,2.9942-2.57905h29.252a3.02762,3.02762,0,0,1,2.99513,3.47l-8.815,59.68488c-.77781,4.66373,1.16568,6.80115,6.02334,6.80115a23.05471,23.05471,0,0,0,4.36177-.44491A3.03373,3.03373,0,0,1,340.27466,173.22509Zm184.69369,0-3.16683,22.0165a3.04192,3.04192,0,0,1-2.33246,2.52342A71.21608,71.21608,0,0,1,502.46452,200c-13.6023,0-22.153-4.4698-25.65-12.04772C468.65271,195.1413,456.41,200,443.00165,200c-25.26111,0-39.25231-16.90642-35.56032-41.77967l8.168-55.32288a3.02762,3.02762,0,0,1,2.99515-2.58541h29.24525a3.02762,3.02762,0,0,1,2.99512,3.47005l-7.06534,47.831c-1.74955,11.27095,3.10916,18.26707,13.6023,18.26707,10.68811,0,18.266-6.60721,19.82061-17.68423l7.38651-49.30486a3.02762,3.02762,0,0,1,2.99421-2.57905h29.252a3.02763,3.02763,0,0,1,2.99514,3.47l-8.815,59.68488c-.77781,4.66373,1.16567,6.80115,6.02334,6.80115a23.05479,23.05479,0,0,0,4.36177-.44491A3.03373,3.03373,0,0,1,524.96835,173.22509Z"/>
    <g>
      <path class="b" d="M123.53893,198.82281c-14.7081-36.78553-61.3913-47.2302-70.54686-48.94619a1.64626,1.64626,0,0,1-1.327-1.86305L64.91018,60.11623a159.93,159.93,0,0,0-22.27413-.73812,1.642,1.642,0,0,0-1.53093,1.39918L25.01887,167.53038a1.641,1.641,0,0,0,1.66154,1.89013c11.64857-.28392,71.96189-.30049,89.49826,28.94726a3.30491,3.30491,0,0,0,3.7542,1.50255Z"/>
      <path class="c" d="M129.98033,194.95865c-3.653-23.48011-31.2523-48.41438-31.2523-48.41438-8.24146-10.02971-1.33826-23.95973,2.03162-29.51374a1.63939,1.63939,0,0,0-1.27925-2.48635c-5.24718-.40534-15.85547-2.72378-15.85161-14.84584a20.90889,20.90889,0,0,1,.2651-3.09665l4.97483-33.1135v-.00006l-.00665-.00125c-5.14577-.9784-10.2815-1.779-15.23354-2.41029l-.05985-.00766c-2.96406-.3772-5.85973-.69407-8.65113-.952l-.00737-.00071L51.66509,148.01357a1.64626,1.64626,0,0,0,1.327,1.86305c9.15556,1.716,55.83876,12.16066,70.54686,48.94619l4.11043-1.19393a3.291,3.291,0,0,0,2.33619-2.66993l.55252-3.66656C130.1756,193.6768,129.98033,194.95865,129.98033,194.95865Z"/>
      <path class="d" d="M73.56868,61.06893l.05983.00764c4.95208.63134,10.0878,1.43193,15.23359,2.41034l.00664.00122L91.98946,42.716a109.38429,109.38429,0,0,0-22.55534-3.11513A1.63822,1.63822,0,0,0,67.79044,41.002L64.91015,60.11625l.00741.00072C67.709,60.37489,70.60465,60.69175,73.56868,61.06893Z"/>
      <path class="e" d="M144.46839,98.84764c2.90772-18.57284-26.46229-29.81838-55.59967-35.35945l-4.97483,33.1135a20.90889,20.90889,0,0,0-.2651,3.09665c-.00386,12.12206,10.60443,14.4405,15.85161,14.84584a1.63939,1.63939,0,0,1,1.27925,2.48635c-3.36988,5.554-10.27308,19.484-2.03162,29.51374,0,0,27.59933,24.93427,31.2523,48.41438,0,.00006,7.03572-46.18654,15.4442-102.45634Z"/>
      <path class="f" d="M145.42564,92.495c7.53749-50.44138-39.19025-64.97373-48.95643-67.44413a1.643,1.643,0,0,0-2.02884,1.35157L91.98946,42.716C119.15212,49.20412,149.42333,65.78778,145.42564,92.495Z"/>
      <path class="g" d="M91.98946,42.716,88.86874,63.48813h0v.00006c29.13738,5.54108,58.50737,16.78662,55.59963,35.35949l.95727-6.35268C149.42333,65.78778,119.15212,49.20412,91.98946,42.716Z"/>
    </g>
  </g>
</svg>
